<svg xmlns="http://www.w3.org/2000/svg" width="850" height="118" viewBox="0 0 850 118" fill="none" font-family="ui-monospace,'SF Mono',SFMono-Regular,Menlo,Consolas,'DejaVu Sans Mono',monospace" role="img"><text x="0" y="20" font-size="11" font-weight="700" fill="#6c6f85" letter-spacing="1.6">CODE COMPOSITION</text><text x="850" y="20" font-size="10" font-weight="400" fill="#9ca0b0" letter-spacing="1" text-anchor="end">measured · balanced across repos</text><clipPath id="cb"><rect x="0" y="34" width="850" height="14" rx="7"/></clipPath><g clip-path="url(#cb)"><rect x="0" y="34" width="299" height="14" fill="#3572A5"/><rect x="298.1248124812481" y="34" width="243" height="14" fill="#3178c6"/><rect x="540.6540654065407" y="34" width="181" height="14" fill="#e34c26"/><rect x="721.2121212121212" y="34" width="49" height="14" fill="#3D6117"/><rect x="769.4969496949695" y="34" width="37" height="14" fill="#4F5D95"/><rect x="805.6255625562557" y="34" width="21" height="14" fill="#f1e05a"/><rect x="826.6226622662266" y="34" width="12" height="14" fill="#89e051"/><rect x="838.5238523852385" y="34" width="12" height="14" fill="#663399"/></g><text x="149.06240624062406" y="62" font-size="9" font-weight="400" fill="#9ca0b0" letter-spacing="1" text-anchor="middle">PYTH</text><text x="419.38943894389433" y="62" font-size="9" font-weight="400" fill="#9ca0b0" letter-spacing="1" text-anchor="middle">TYPE</text><text x="630.933093309331" y="62" font-size="9" font-weight="400" fill="#9ca0b0" letter-spacing="1" text-anchor="middle">HTML</text><text x="745.3545354535454" y="62" font-size="9" font-weight="400" fill="#9ca0b0" letter-spacing="1" text-anchor="middle">TEX</text><text x="787.5612561256127" y="62" font-size="9" font-weight="400" fill="#9ca0b0" letter-spacing="1" text-anchor="middle">PHP</text><circle cx="4" cy="80" r="4" fill="#3572A5"/><text x="15" y="84" font-size="11.5" font-weight="400" fill="#4c4f69">Python</text><text x="152" y="84" font-size="11" font-weight="400" fill="#9ca0b0" text-anchor="end">35.07%</text><circle cx="174" cy="80" r="4" fill="#3178c6"/><text x="185" y="84" font-size="11.5" font-weight="400" fill="#4c4f69">TypeScript</text><text x="322" y="84" font-size="11" font-weight="400" fill="#9ca0b0" text-anchor="end">28.53%</text><circle cx="344" cy="80" r="4" fill="#e34c26"/><text x="355" y="84" font-size="11.5" font-weight="400" fill="#4c4f69">HTML</text><text x="492" y="84" font-size="11" font-weight="400" fill="#9ca0b0" text-anchor="end">21.24%</text><circle cx="514" cy="80" r="4" fill="#3D6117"/><text x="525" y="84" font-size="11.5" font-weight="400" fill="#4c4f69">TeX</text><text x="662" y="84" font-size="11" font-weight="400" fill="#9ca0b0" text-anchor="end">5.68%</text><circle cx="684" cy="80" r="4" fill="#4F5D95"/><text x="695" y="84" font-size="11.5" font-weight="400" fill="#4c4f69">PHP</text><text x="832" y="84" font-size="11" font-weight="400" fill="#9ca0b0" text-anchor="end">4.25%</text><circle cx="4" cy="100" r="4" fill="#f1e05a"/><text x="15" y="104" font-size="11.5" font-weight="400" fill="#4c4f69">JavaScript</text><text x="152" y="104" font-size="11" font-weight="400" fill="#9ca0b0" text-anchor="end">2.47%</text><circle cx="174" cy="100" r="4" fill="#89e051"/><text x="185" y="104" font-size="11.5" font-weight="400" fill="#4c4f69">Shell</text><text x="322" y="104" font-size="11" font-weight="400" fill="#9ca0b0" text-anchor="end">1.40%</text><circle cx="344" cy="100" r="4" fill="#663399"/><text x="355" y="104" font-size="11.5" font-weight="400" fill="#4c4f69">CSS</text><text x="492" y="104" font-size="11" font-weight="400" fill="#9ca0b0" text-anchor="end">1.35%</text></svg>
